<?xml version="1.0" encoding="UTF-8"?>
<!DOCTYPE svg PUBLIC "-//W3C//DTD SVG 1.1//EN" "http://www.w3.org/Graphics/SVG/1.1/DTD/svg11.dtd">
<svg xmlns="http://www.w3.org/2000/svg" version="1.1" width="48px" height="48px" style="shape-rendering:geometricPrecision; text-rendering:geometricPrecision; image-rendering:optimizeQuality; fill-rule:evenodd; clip-rule:evenodd" xmlns:xlink="http://www.w3.org/1999/xlink">
<g><path style="opacity:0.888" fill="#01b9d8" d="M 34.5,13.5 C 30.7504,15.1458 26.7504,16.1458 22.5,16.5C 18.6203,15.5163 14.9536,15.5163 11.5,16.5C 14.7316,9.69352 20.065,7.19352 27.5,9C 30.2565,9.93832 32.5899,11.4383 34.5,13.5 Z"/></g>
<g><path style="opacity:0.93" fill="#00b0ce" d="M 34.5,13.5 C 36.2622,15.4167 38.4288,16.75 41,17.5C 43.0466,16.3906 45.2133,15.7239 47.5,15.5C 47.5,16.1667 47.5,16.8333 47.5,17.5C 44.9157,22.1257 40.9157,24.1257 35.5,23.5C 29.5913,24.0463 25.258,21.7129 22.5,16.5C 26.7504,16.1458 30.7504,15.1458 34.5,13.5 Z"/></g>
<g><path style="opacity:0.874" fill="#00a7c5" d="M 23.5,29.5 C 19.674,31.0502 15.674,32.0502 11.5,32.5C 9.91839,31.1242 8.08506,30.1242 6,29.5C 3.95339,30.6094 1.78672,31.2761 -0.5,31.5C -0.5,30.8333 -0.5,30.1667 -0.5,29.5C 2.08432,24.8743 6.08432,22.8743 11.5,23.5C 16.878,22.8556 20.878,24.8556 23.5,29.5 Z"/></g>
<g><path style="opacity:0.81" fill="#009cb9" d="M 23.5,29.5 C 27.0228,32.1081 30.5228,32.1081 34,29.5C 34.5,29.8333 35,30.1667 35.5,30.5C 31.2333,38.3122 24.8999,40.4788 16.5,37C 14.3825,35.9509 12.7158,34.4509 11.5,32.5C 15.674,32.0502 19.674,31.0502 23.5,29.5 Z"/></g>
</svg>
