<?xml version="1.0" standalone="no"?>
<!DOCTYPE svg PUBLIC "-//W3C//DTD SVG 20010904//EN"
 "http://www.w3.org/TR/2001/REC-SVG-20010904/DTD/svg10.dtd">
<svg version="1.0" xmlns="http://www.w3.org/2000/svg"
 width="500.000000pt" height="270.000000pt" viewBox="0 0 500.000000 270.000000"
 preserveAspectRatio="xMidYMid meet">

<g transform="translate(0.000000,270.000000) scale(0.100000,-0.100000)"
fill="#000000" stroke="none">
<path d="M3445 1807 c-112 -38 -186 -91 -364 -260 -213 -202 -314 -260 -456
-261 -148 -1 -231 41 -458 236 -307 263 -416 301 -668 232 -138 -38 -287 -106
-513 -233 -260 -148 -318 -171 -449 -178 -82 -5 -97 -4 -97 9 0 8 25 100 55
203 31 103 54 189 52 191 -2 2 -105 -101 -230 -230 l-226 -233 182 -111 c100
-61 226 -138 280 -171 112 -70 113 -80 -7 122 -42 71 -76 129 -76 130 0 1 34
3 76 5 142 4 290 67 588 250 304 185 438 226 620 187 118 -25 180 -61 305
-179 278 -260 453 -348 632 -317 133 24 223 82 440 286 206 194 292 243 434
252 169 11 351 -65 600 -251 165 -123 342 -204 466 -213 126 -9 255 23 337 84
29 22 32 28 32 81 l0 57 -30 -37 c-18 -21 -59 -51 -98 -70 -63 -31 -72 -33
-177 -33 -82 0 -124 5 -165 19 -82 28 -211 94 -284 145 -35 25 -107 76 -158
112 -181 129 -311 178 -493 185 -75 3 -123 0 -150 -9z"/>
</g>
</svg>
