<?xml version="1.0" standalone="no"?>
<!DOCTYPE svg PUBLIC "-//W3C//DTD SVG 20010904//EN"
 "http://www.w3.org/TR/2001/REC-SVG-20010904/DTD/svg10.dtd">
<svg version="1.0" xmlns="http://www.w3.org/2000/svg"
 width="500.000000pt" height="273.000000pt" viewBox="0 0 500.000000 273.000000"
 preserveAspectRatio="xMidYMid meet">

<g transform="translate(0.000000,273.000000) scale(0.100000,-0.100000)"
fill="#000000" stroke="none">
<path d="M4364 1782 c8 -15 48 -85 90 -155 42 -71 76 -129 76 -130 0 -1 -34
-3 -76 -5 -142 -4 -290 -67 -588 -250 -306 -186 -437 -226 -620 -187 -118 25
-180 61 -305 179 -278 260 -453 348 -632 317 -133 -24 -223 -82 -440 -286
-206 -194 -292 -243 -434 -252 -169 -11 -351 65 -600 251 -165 123 -342 204
-466 213 -126 9 -255 -23 -337 -84 -29 -22 -32 -28 -32 -81 l0 -57 30 37 c18
21 59 51 98 70 63 31 72 33 177 33 82 0 124 -5 165 -19 82 -28 211 -94 284
-145 35 -25 107 -76 158 -112 191 -136 322 -183 513 -184 115 0 123 1 189 33
94 44 149 87 305 235 213 202 314 260 456 261 148 1 231 -41 458 -236 307
-263 416 -301 668 -232 137 37 288 106 504 229 264 149 329 175 457 182 83 5
98 4 98 -9 0 -8 -25 -100 -55 -203 -31 -103 -54 -189 -52 -191 2 -2 105 101
230 230 l226 233 -182 111 c-100 61 -226 138 -280 171 -88 55 -96 58 -83 33z"/>
</g>
</svg>
