<?xml version="1.0" encoding="UTF-8"?>
<!DOCTYPE svg PUBLIC "-//W3C//DTD SVG 1.1//EN" "http://www.w3.org/Graphics/SVG/1.1/DTD/svg11.dtd">
<svg xmlns="http://www.w3.org/2000/svg" version="1.1" width="48px" height="48px" style="shape-rendering:geometricPrecision; text-rendering:geometricPrecision; image-rendering:optimizeQuality; fill-rule:evenodd; clip-rule:evenodd" xmlns:xlink="http://www.w3.org/1999/xlink">
<g><path style="opacity:0.715" fill="#575d61" d="M 9.5,11.5 C 12.3854,11.1936 15.0521,11.5269 17.5,12.5C 17.5,13.5 17.5,14.5 17.5,15.5C 14.6085,14.5975 11.6085,14.2641 8.5,14.5C 8.06178,14.5654 7.72845,14.3988 7.5,14C 8.38053,13.2917 9.0472,12.4584 9.5,11.5 Z"/></g>
<g><path style="opacity:0.759" fill="#3a3e43" d="M 40.5,18.5 C 37.5,20.5 34.5,22.5 31.5,24.5C 31.5,24.1667 31.5,23.8333 31.5,23.5C 32.1098,22.609 32.4431,21.609 32.5,20.5C 33.1174,20.6107 33.6174,20.944 34,21.5C 36.1667,18.6667 38.3333,15.8333 40.5,13C 41.9437,12.2195 43.277,12.3861 44.5,13.5C 43.1128,15.21 41.7794,16.8767 40.5,18.5 Z"/></g>
<g><path style="opacity:0.799" fill="#595e62" d="M 9.5,11.5 C 9.0472,12.4584 8.38053,13.2917 7.5,14C 7.72845,14.3988 8.06178,14.5654 8.5,14.5C 5.81583,16.8707 4.4825,19.8707 4.5,23.5C 6.16667,23.5 7.83333,23.5 9.5,23.5C 9.16667,24.1667 8.83333,24.8333 8.5,25.5C 6.80081,25.3398 5.13414,25.5065 3.5,26C 4.05596,26.3826 4.38929,26.8826 4.5,27.5C 3.60895,28.1098 2.60895,28.4431 1.5,28.5C 1.3347,24.8183 1.50137,21.1516 2,17.5C 3.4802,14.1828 5.9802,12.1828 9.5,11.5 Z"/></g>
<g><path style="opacity:0.741" fill="#43474b" d="M 32.5,20.5 C 32.4431,21.609 32.1098,22.609 31.5,23.5C 28.5074,20.4988 25.8407,17.1654 23.5,13.5C 24.723,12.3861 26.0563,12.2195 27.5,13C 29.3887,15.3818 31.0553,17.8818 32.5,20.5 Z"/></g>
<g><path style="opacity:0.903" fill="#4b4f53" d="M 17.5,12.5 C 22.9052,15.0552 24.9052,19.3885 23.5,25.5C 18.5,25.5 13.5,25.5 8.5,25.5C 8.83333,24.8333 9.16667,24.1667 9.5,23.5C 13.5138,23.6655 17.5138,23.4988 21.5,23C 20.9744,20.0374 19.641,17.5374 17.5,15.5C 17.5,14.5 17.5,13.5 17.5,12.5 Z"/></g>
<g><path style="opacity:0.889" fill="#383c3f" d="M 40.5,18.5 C 38.8004,20.2099 37.4671,22.2099 36.5,24.5C 36.8627,25.1835 37.1961,25.8501 37.5,26.5C 36.609,27.1098 35.609,27.4431 34.5,27.5C 32.8058,28.5274 31.4725,29.8608 30.5,31.5C 29.8333,30.8333 29.1667,30.1667 28.5,29.5C 29.7515,27.9991 30.7515,26.3325 31.5,24.5C 34.5,22.5 37.5,20.5 40.5,18.5 Z"/></g>
<g><path style="opacity:0.794" fill="#2f3336" d="M 37.5,26.5 C 40.2791,29.8802 42.9458,33.3802 45.5,37C 44.1667,37.6667 42.8333,37.6667 41.5,37C 38.9491,33.9556 36.6158,30.7889 34.5,27.5C 35.609,27.4431 36.609,27.1098 37.5,26.5 Z"/></g>
<g><path style="opacity:0.884" fill="#3e4347" d="M 15.5,37.5 C 15.5,36.5 15.5,35.5 15.5,34.5C 17.2959,33.2073 18.9625,31.7073 20.5,30C 21.635,29.2506 22.635,29.4173 23.5,30.5C 22.053,34.2834 19.3863,36.6168 15.5,37.5 Z"/></g>
<g><path style="opacity:0.784" fill="#36383d" d="M 28.5,29.5 C 29.1667,30.1667 29.8333,30.8333 30.5,31.5C 29.252,35.6046 26.5853,37.4379 22.5,37C 24.364,34.3123 26.364,31.8123 28.5,29.5 Z"/></g>
<g><path style="opacity:0.817" fill="#505558" d="M 4.5,27.5 C 4.61501,29.9468 5.61501,31.9468 7.5,33.5C 7.44312,34.609 7.10978,35.609 6.5,36.5C 3.83612,34.5156 2.16945,31.8489 1.5,28.5C 2.60895,28.4431 3.60895,28.1098 4.5,27.5 Z"/></g>
<g><path style="opacity:0.948" fill="#44484b" d="M 7.5,33.5 C 10.0545,34.388 12.7212,34.7214 15.5,34.5C 15.5,35.5 15.5,36.5 15.5,37.5C 12.3915,37.7359 9.39147,37.4025 6.5,36.5C 7.10978,35.609 7.44312,34.609 7.5,33.5 Z"/></g>
</svg>
